<?xml version="1.0" encoding="utf-8"?>
<!DOCTYPE svg PUBLIC "-//W3C//DTD SVG 20010904//EN" "http://www.w3.org/TR/2001/REC-SVG-20010904/DTD/svg10.dtd">
<svg version="1.0" xmlns="http://www.w3.org/2000/svg" width="37px" height="37px" viewBox="0 0 37 37" preserveAspectRatio="xMidYMid meet">
 <g fill="#ed99a6">
 </g>
 <g fill="#d71635">
  <path d="M10.5 35.1 l-4 -1.8 8.9 -0.5 c8.3 -0.4 9.1 -0.7 11.3 -3.3 1.9 -2.2 2.3 -3.5 1.9 -5.9 -0.9 -4.6 -2.9 -5.9 -9.3 -6.4 -7.4 -0.5 -10.1 -3.2 -6.7 -6.6 1.2 -1.2 3.8 -1.6 11.4 -1.6 l9.8 0 1.1 3.1 c2.3 6.6 1 14.2 -3.2 18.7 -5.5 6 -13.9 7.7 -21.2 4.3z"/>
  <path d="M1.4 25.5 c-1.8 -4.4 -1.8 -8.6 0.1 -13.2 2.1 -5 4.2 -7.2 9 -9.4 5 -2.3 9.3 -2.4 14.7 -0.1 l4.3 1.7 -8.9 0.6 c-8.2 0.6 -9.2 0.9 -11.4 3.4 -1.8 2.2 -2.2 3.5 -1.8 5.9 0.9 4.6 3.9 6.6 10 6.6 7 0 9.7 2.8 6 6.4 -1.2 1.2 -3.7 1.6 -11 1.6 l-9.5 0 -1.5 -3.5z"/>
 </g>
</svg>