<?xml version="1.0" standalone="no"?>
<!DOCTYPE svg PUBLIC "-//W3C//DTD SVG 20010904//EN"
 "http://www.w3.org/TR/2001/REC-SVG-20010904/DTD/svg10.dtd">
<svg version="1.0" xmlns="http://www.w3.org/2000/svg"
 width="300.000000pt" height="300.000000pt" viewBox="0 0 300.000000 300.000000"
 preserveAspectRatio="xMidYMid meet">

<g transform="translate(0.000000,300.000000) scale(0.100000,-0.100000)"
fill="#000000" stroke="none">
<path d="M509 1767 c-152 -144 -318 -301 -368 -349 l-91 -87 2 -172 3 -172
354 329 c195 181 358 331 363 332 4 2 8 -57 8 -132 l0 -136 -102 0 -103 -1
-130 -124 -130 -124 228 -1 227 0 0 -75 0 -75 135 0 135 0 0 525 0 525 -127
-1 -128 0 -276 -262z"/>
<path d="M1110 1900 l0 -130 110 0 110 0 0 -395 0 -395 140 0 140 0 -2 395 -3
395 95 0 95 0 130 130 130 130 -473 0 -472 0 0 -130z"/>
<path d="M2012 1902 l-132 -128 0 -397 0 -397 355 0 c402 0 395 -1 469 81 65
71 81 118 81 239 -1 78 -5 115 -18 145 -31 70 -69 116 -122 146 l-50 29 -197
0 -198 0 0 -125 0 -125 149 0 150 0 20 -26 c12 -15 21 -34 21 -44 0 -10 -9
-29 -21 -44 l-20 -26 -180 0 -179 0 0 270 0 270 278 0 277 0 130 130 130 130
-405 0 -405 0 -133 -128z"/>
</g>
</svg>
